0.16m3min_grf.mot
version=1
nRows=30
nColumns 19
inDegrees=yes
endheader
time	1_ground_force_vx	1_ground_force_vy	1_ground_force_vz	1_ground_force_px	1_ground_force_py	1_ground_force_pz	1_ground_torque_x	1_ground_torque_y	1_ground_torque_z	2_ground_force_vx	2_ground_force_vy	2_ground_force_vz	2_ground_force_px	2_ground_force_py	2_ground_force_pz	2_ground_torque_x	2_ground_torque_y	2_ground_torque_z
            3.751500	           12.199140	          372.261646	          -42.961420	           -0.205750	            0.006022	           -0.357195	           -0.019404	           -0.592118	            0.068334	           12.563803	          380.496345	           54.193267	           -0.198914	            0.005611	           -0.654369	            0.005399	            0.163510	            0.023288
            3.752000	           12.844095	          365.588628	          -42.212058	           -0.205937	            0.006022	           -0.357228	           -0.003472	           -0.098812	            0.011409	           12.968099	          372.214410	           53.224978	           -0.198849	            0.005610	           -0.653954	            0.007444	            0.213674	            0.030554
            3.752500	           13.854834	          358.556858	          -41.877860	           -0.205871	            0.006022	           -0.357288	           -0.017394	           -0.450149	            0.052575	           13.275331	          364.853174	           52.166158	           -0.198900	            0.005608	           -0.653487	            0.017751	            0.487860	            0.069753
            3.753000	           14.270685	          353.145035	          -40.984954	           -0.205937	            0.006020	           -0.356763	           -0.050417	           -1.247632	            0.144796	           13.529690	          359.149431	           51.019415	           -0.199220	            0.005609	           -0.654091	            0.029708	            0.788610	            0.112027
            3.753500	           14.914894	          345.572232	          -40.606312	           -0.206142	            0.006022	           -0.357237	           -0.081397	           -1.885943	            0.221607	           13.649584	          351.787016	           50.101459	           -0.199047	            0.005608	           -0.653788	            0.034089	            0.878579	            0.125127
            3.754000	           15.101011	          339.260247	          -39.991838	           -0.206093	            0.006021	           -0.357063	           -0.081309	           -1.826697	            0.215330	           14.425479	          344.426133	           49.417864	           -0.198674	            0.005610	           -0.653966	            0.020422	            0.487612	            0.069962
            3.754500	           15.837098	          333.128799	          -39.423809	           -0.205690	            0.006021	           -0.357031	           -0.052984	           -1.114504	            0.131895	           15.200648	          337.249892	           48.594142	           -0.198451	            0.005610	           -0.653631	            0.008542	            0.189515	            0.027307
            3.755000	           16.389458	          326.457276	          -39.041074	           -0.205542	            0.006019	           -0.356579	           -0.013310	           -0.265112	            0.031705	           16.019928	          330.811114	           47.585316	           -0.198730	            0.005609	           -0.653731	           -0.000836	           -0.017270	           -0.002484
            3.755500	           16.301087	          320.144255	          -38.196634	           -0.205064	            0.006020	           -0.356738	           -0.005565	           -0.109290	            0.013039	           16.605642	          324.187122	           46.622861	           -0.199052	            0.005608	           -0.653753	            0.001277	            0.024924	            0.003584
            3.756000	           16.854353	          314.732655	          -37.349930	           -0.205623	            0.006019	           -0.356589	           -0.028251	           -0.527548	            0.062605	           16.446409	          316.271437	           45.656125	           -0.198972	            0.005607	           -0.653285	            0.019370	            0.372492	            0.053772
            3.756500	           17.224495	          307.338264	          -36.557125	           -0.205436	            0.006022	           -0.357367	           -0.077673	           -1.385920	            0.164852	           16.607026	          310.567691	           44.415566	           -0.198713	            0.005610	           -0.653793	            0.033139	            0.619738	            0.088631
            3.757000	           17.548595	          301.025519	          -35.759569	           -0.205735	            0.006023	           -0.357431	           -0.106479	           -1.826517	            0.216976	           16.816611	          304.310687	           43.454584	           -0.198681	            0.005611	           -0.654049	            0.031496	            0.569947	            0.081387
            3.757500	           18.054654	          295.616270	          -35.463014	           -0.206136	            0.006020	           -0.356932	           -0.095652	           -1.566145	            0.187879	           17.124652	          296.764139	           42.723604	           -0.198635	            0.005608	           -0.653337	            0.014890	            0.258037	            0.037148
            3.758000	           18.241245	          288.582571	          -34.714068	           -0.204917	            0.006020	           -0.356668	           -0.049862	           -0.788837	            0.094890	           17.662435	          290.506250	           42.325620	           -0.198260	            0.005612	           -0.654022	            0.002375	            0.039064	            0.005691
            3.758500	           18.839669	          283.172160	          -34.142605	           -0.204753	            0.006020	           -0.356759	           -0.002681	           -0.040297	            0.004859	           18.107515	          283.882480	           41.175512	           -0.198183	            0.005612	           -0.653901	           -0.007744	           -0.121414	           -0.017610
            3.759000	           18.981263	          276.497472	          -33.025152	           -0.204448	            0.006017	           -0.356047	           -0.002479	           -0.036106	            0.004312	           18.413376	          276.889860	           40.024149	           -0.198140	            0.005611	           -0.653599	            0.000822	            0.012366	            0.001787
            3.759500	           18.709424	          269.463685	          -32.275061	           -0.204659	            0.006020	           -0.356701	           -0.046479	           -0.669420	            0.080180	           18.623688	          270.448214	           39.203295	           -0.198362	            0.005611	           -0.653756	            0.017759	            0.257892	            0.037383
            3.760000	           18.940925	          264.413931	          -31.747002	           -0.205449	            0.006020	           -0.356856	           -0.105357	           -1.470780	            0.176590	           18.601581	          263.454577	           38.005144	           -0.197895	            0.005610	           -0.653000	            0.028189	            0.399244	            0.057594
            3.760500	           19.080890	          259.183728	          -31.173636	           -0.205326	            0.006019	           -0.356678	           -0.134483	           -1.826733	            0.219712	           18.623808	          257.196562	           37.138098	           -0.197960	            0.005610	           -0.653155	            0.022068	            0.304756	            0.044006
            3.761000	           19.542715	          253.050821	          -30.283932	           -0.205126	            0.006019	           -0.356549	           -0.100463	           -1.300860	            0.155681	           18.785960	          251.122830	           36.365506	           -0.198143	            0.005610	           -0.653411	            0.007556	            0.101003	            0.014626
            3.761500	           19.911798	          247.099962	          -29.805935	           -0.204643	            0.006018	           -0.356211	           -0.036099	           -0.447980	            0.054037	           19.091259	          244.313544	           35.449441	           -0.197682	            0.005613	           -0.653684	           -0.009324	           -0.119320	           -0.017313
            3.762000	           20.189583	          241.508830	          -29.142741	           -0.204181	            0.006015	           -0.355595	            0.009933	            0.118824	           -0.014338	           19.210571	          237.134601	           34.719854	           -0.197385	            0.005613	           -0.653410	           -0.015695	           -0.193741	           -0.028366
            3.762500	           20.100820	          236.097500	          -28.386152	           -0.203879	            0.006015	           -0.355684	           -0.007451	           -0.087512	            0.010522	           19.558447	          231.432703	           33.150719	           -0.197295	            0.005613	           -0.653247	           -0.011588	           -0.137121	           -0.019641
            3.763000	           20.288079	          228.522052	          -27.410241	           -0.203924	            0.006020	           -0.356730	           -0.072105	           -0.812181	            0.097418	           19.676991	          224.438767	           32.187148	           -0.197642	            0.005609	           -0.652529	            0.012866	            0.146750	            0.021046
            3.763500	           19.923850	          223.471790	          -26.788991	           -0.204229	            0.006018	           -0.356332	           -0.135848	           -1.523717	            0.182658	           19.466919	          217.627788	           31.224375	           -0.197431	            0.005609	           -0.652320	            0.026047	            0.291194	            0.041779
            3.764000	           20.568086	          218.241653	          -26.216873	           -0.204842	            0.006018	           -0.356222	           -0.152790	           -1.621212	            0.194753	           19.349927	          211.000954	           30.356075	           -0.197054	            0.005611	           -0.652376	            0.014475	            0.157838	            0.022708
            3.764500	           20.845776	          211.929852	          -25.648483	           -0.203753	            0.006016	           -0.355754	           -0.097919	           -0.995499	            0.120479	           19.416988	          205.295697	           29.444052	           -0.196643	            0.005614	           -0.652849	           -0.008279	           -0.087529	           -0.012554
            3.765000	           20.986246	          204.536233	          -25.038533	           -0.203032	            0.006017	           -0.356077	           -0.010794	           -0.105202	            0.012878	           19.675604	          198.484904	           28.903432	           -0.196522	            0.005615	           -0.652986	           -0.027195	           -0.274339	           -0.039949
            3.765500	           21.401610	          199.305463	          -24.328278	           -0.202784	            0.006016	           -0.355844	            0.025142	            0.234134	           -0.028580	           19.794710	          191.307634	           27.704564	           -0.196082	            0.005613	           -0.651969	           -0.040290	           -0.389384	           -0.056389
            3.766000	           21.037999	          194.614552	          -23.430346	           -0.202931	            0.006013	           -0.354981	           -0.012231	           -0.113148	            0.013622	           19.442761	          184.864429	           26.743165	           -0.195395	            0.005612	           -0.651201	           -0.018211	           -0.173150	           -0.025049
